<?xml version="1.0" encoding="UTF-8"?>
<svg width="135px" height="41px" viewBox="0 0 135 41" version="1.1" xmlns="http://www.w3.org/2000/svg" xmlns:xlink="http://www.w3.org/1999/xlink">
    <!-- Generator: Sketch 55.1 (78136) - https://sketchapp.com -->
    <title>play store</title>
    <desc>Created with Sketch.</desc>
    <defs>
        <linearGradient x1="61.0265807%" y1="4.95969673%" x2="26.4999303%" y2="71.9285714%" id="linearGradient-1">
            <stop stop-color="#00A0FF" offset="0%"></stop>
            <stop stop-color="#00A1FF" offset="0.657445%"></stop>
            <stop stop-color="#00BEFF" offset="26.01%"></stop>
            <stop stop-color="#00D2FF" offset="51.22%"></stop>
            <stop stop-color="#00DFFF" offset="76.04%"></stop>
            <stop stop-color="#00E3FF" offset="100%"></stop>
        </linearGradient>
        <linearGradient x1="107.622047%" y1="50.0537383%" x2="-130.536417%" y2="50.0537383%" id="linearGradient-2">
            <stop stop-color="#FFE000" offset="0%"></stop>
            <stop stop-color="#FFBD00" offset="40.87%"></stop>
            <stop stop-color="#FFA500" offset="77.54%"></stop>
            <stop stop-color="#FF9C00" offset="100%"></stop>
        </linearGradient>
        <linearGradient x1="86.2529976%" y1="30.8651275%" x2="-50.1876499%" y2="136.049367%" id="linearGradient-3">
            <stop stop-color="#FF3A44" offset="0%"></stop>
            <stop stop-color="#C31162" offset="100%"></stop>
        </linearGradient>
        <linearGradient x1="-18.7699221%" y1="-11.8170913%" x2="42.1204314%" y2="35.0956521%" id="linearGradient-4">
            <stop stop-color="#32A071" offset="0%"></stop>
            <stop stop-color="#2DA771" offset="6.85%"></stop>
            <stop stop-color="#15CF74" offset="47.62%"></stop>
            <stop stop-color="#06E775" offset="80.09%"></stop>
            <stop stop-color="#00F076" offset="100%"></stop>
        </linearGradient>
    </defs>
    <g id="Page-1" stroke="none" stroke-width="1" fill="none" fill-rule="evenodd">
        <g id="play-store" transform="translate(0.000000, 0.880000)" fill-rule="nonzero">
            <path d="M130,40 L5,40 C2.25,40 0,37.75 0,35 L0,5 C0,2.25 2.25,0 5,0 L130,0 C132.75,0 135,2.25 135,5 L135,35 C135,37.75 132.75,40 130,40 Z" id="Path" fill="#000000"></path>
            <path d="M130,0.8 C132.32,0.8 134.2,2.68 134.2,5 L134.2,35 C134.2,37.32 132.32,39.2 130,39.2 L5,39.2 C2.68,39.2 0.8,37.32 0.8,35 L0.8,5 C0.8,2.68 2.68,0.8 5,0.8 L130,0.8 L130,0.8 Z M130,0 L5,0 C2.25,0 0,2.25 0,5 L0,35 C0,37.75 2.25,40 5,40 L130,40 C132.75,40 135,37.75 135,35 L135,5 C135,2.25 132.75,0 130,0 L130,0 Z" id="Shape" fill="#A6A6A6"></path>
            <g id="Group" transform="translate(41.000000, 6.120000)" fill="#FFFFFF" stroke="#FFFFFF" stroke-width="0.2">
                <path d="M6.42,4.13 C6.42,4.97 6.17,5.64 5.67,6.13 C5.11,6.72 4.37,7.02 3.47,7.02 C2.6,7.02 1.87,6.72 1.26,6.12 C0.65,5.52 0.35,4.77 0.35,3.89 C0.35,3 0.65,2.26 1.26,1.66 C1.87,1.06 2.6,0.76 3.47,0.76 C3.9,0.76 4.31,0.84 4.7,1.01 C5.09,1.18 5.4,1.4 5.64,1.68 L5.11,2.21 C4.71,1.74 4.17,1.5 3.47,1.5 C2.84,1.5 2.29,1.72 1.83,2.17 C1.37,2.61 1.14,3.19 1.14,3.9 C1.14,4.61 1.37,5.19 1.83,5.63 C2.29,6.07 2.84,6.3 3.47,6.3 C4.14,6.3 4.7,6.08 5.15,5.63 C5.44,5.34 5.61,4.93 5.65,4.41 L3.47,4.41 L3.47,3.69 L6.38,3.69 C6.4,3.83 6.42,3.98 6.42,4.13 Z" id="Path"></path>
                <polygon id="Path" points="11.03 1.62 8.3 1.62 8.3 3.52 10.76 3.52 10.76 4.24 8.3 4.24 8.3 6.14 11.03 6.14 11.03 6.88 7.53 6.88 7.53 0.88 11.03 0.88 11.03 1.62"></polygon>
                <polygon id="Path" points="14.28 6.88 13.51 6.88 13.51 1.62 11.83 1.62 11.83 0.88 15.95 0.88 15.95 1.62 14.27 1.62 14.27 6.88"></polygon>
                <polygon id="Path" points="18.94 6.88 18.94 0.88 19.71 0.88 19.71 6.88"></polygon>
                <polygon id="Path" points="23.13 6.88 22.36 6.88 22.36 1.62 20.68 1.62 20.68 0.88 24.8 0.88 24.8 1.62 23.12 1.62 23.12 6.88"></polygon>
                <path d="M32.61,6.11 C32.02,6.72 31.29,7.02 30.41,7.02 C29.53,7.02 28.8,6.72 28.21,6.11 C27.62,5.5 27.33,4.76 27.33,3.89 C27.33,3.01 27.62,2.27 28.21,1.67 C28.8,1.06 29.53,0.76 30.41,0.76 C31.28,0.76 32.01,1.06 32.61,1.67 C33.2,2.28 33.5,3.02 33.5,3.89 C33.49,4.76 33.2,5.5 32.61,6.11 Z M28.78,5.61 C29.22,6.06 29.77,6.28 30.41,6.28 C31.05,6.28 31.6,6.06 32.04,5.61 C32.48,5.16 32.71,4.59 32.71,3.89 C32.71,3.19 32.49,2.62 32.04,2.17 C31.6,1.72 31.05,1.5 30.41,1.5 C29.77,1.5 29.22,1.72 28.78,2.17 C28.34,2.62 28.11,3.19 28.11,3.89 C28.11,4.59 28.34,5.16 28.78,5.61 Z" id="Shape"></path>
                <polygon id="Path" points="34.58 6.88 34.58 0.88 35.52 0.88 38.44 5.55 38.47 5.55 38.44 4.39 38.44 0.88 39.21 0.88 39.21 6.88 38.41 6.88 35.36 1.99 35.33 1.99 35.36 3.15 35.36 6.89 34.58 6.89"></polygon>
            </g>
            <path d="M68.14,21.75 C65.79,21.75 63.87,23.54 63.87,26 C63.87,28.45 65.79,30.25 68.14,30.25 C70.49,30.25 72.41,28.45 72.41,26 C72.41,23.54 70.49,21.75 68.14,21.75 Z M68.14,28.59 C66.85,28.59 65.74,27.53 65.74,26.01 C65.74,24.48 66.85,23.43 68.14,23.43 C69.43,23.43 70.54,24.48 70.54,26.01 C70.54,27.52 69.42,28.59 68.14,28.59 Z M58.82,21.75 C56.47,21.75 54.55,23.54 54.55,26 C54.55,28.45 56.47,30.25 58.82,30.25 C61.17,30.25 63.09,28.45 63.09,26 C63.09,23.54 61.17,21.75 58.82,21.75 Z M58.82,28.59 C57.53,28.59 56.42,27.53 56.42,26.01 C56.42,24.48 57.53,23.43 58.82,23.43 C60.11,23.43 61.22,24.48 61.22,26.01 C61.22,27.52 60.11,28.59 58.82,28.59 Z M47.74,23.06 L47.74,24.86 L52.06,24.86 C51.93,25.88 51.59,26.62 51.08,27.13 C50.45,27.76 49.47,28.45 47.75,28.45 C45.09,28.45 43.01,26.31 43.01,23.65 C43.01,20.99 45.09,18.85 47.75,18.85 C49.18,18.85 50.23,19.41 51,20.14 L52.27,18.87 C51.19,17.84 49.76,17.05 47.74,17.05 C44.1,17.05 41.04,20.01 41.04,23.66 C41.04,27.3 44.1,30.27 47.74,30.27 C49.71,30.27 51.19,29.63 52.35,28.42 C53.54,27.23 53.91,25.55 53.91,24.2 C53.91,23.78 53.88,23.39 53.81,23.07 L47.74,23.07 L47.74,23.06 Z M93.05,24.46 C92.7,23.51 91.62,21.75 89.41,21.75 C87.22,21.75 85.4,23.47 85.4,26 C85.4,28.38 87.2,30.25 89.62,30.25 C91.57,30.25 92.7,29.06 93.16,28.37 L91.71,27.4 C91.23,28.11 90.57,28.58 89.62,28.58 C88.67,28.58 87.99,28.15 87.56,27.29 L93.25,24.94 L93.05,24.46 Z M87.25,25.88 C87.2,24.24 88.52,23.4 89.47,23.4 C90.21,23.4 90.84,23.77 91.05,24.3 L87.25,25.88 Z M82.63,30 L84.5,30 L84.5,17.5 L82.63,17.5 L82.63,30 Z M79.57,22.71 L79.5,22.71 C79.08,22.21 78.28,21.76 77.26,21.76 C75.13,21.76 73.18,23.63 73.18,26.03 C73.18,28.41 75.13,30.27 77.26,30.27 C78.27,30.27 79.08,29.82 79.5,29.3 L79.56,29.3 L79.56,29.91 C79.56,31.54 78.69,32.41 77.29,32.41 C76.15,32.41 75.44,31.59 75.15,30.9 L73.52,31.58 C73.99,32.71 75.23,34.09 77.29,34.09 C79.48,34.09 81.33,32.8 81.33,29.66 L81.33,22.02 L79.56,22.02 L79.56,22.71 L79.57,22.71 Z M77.42,28.59 C76.13,28.59 75.05,27.51 75.05,26.03 C75.05,24.53 76.13,23.44 77.42,23.44 C78.69,23.44 79.69,24.54 79.69,26.03 C79.7,27.51 78.7,28.59 77.42,28.59 Z M101.81,17.5 L97.34,17.5 L97.34,30 L99.21,30 L99.21,25.26 L101.82,25.26 C103.89,25.26 105.92,23.76 105.92,21.38 C105.92,19 103.87,17.5 101.81,17.5 Z M101.85,23.53 L99.2,23.53 L99.2,19.24 L101.85,19.24 C103.25,19.24 104.04,20.4 104.04,21.38 C104.04,22.35 103.25,23.53 101.85,23.53 Z M113.39,21.73 C112.04,21.73 110.64,22.33 110.06,23.64 L111.72,24.33 C112.07,23.64 112.73,23.41 113.42,23.41 C114.38,23.41 115.37,23.99 115.38,25.02 L115.38,25.15 C115.04,24.96 114.32,24.67 113.43,24.67 C111.64,24.67 109.83,25.65 109.83,27.48 C109.83,29.15 111.29,30.23 112.93,30.23 C114.18,30.23 114.88,29.67 115.31,29.01 L115.37,29.01 L115.37,29.98 L117.170045,29.98 L117.170045,25.19 C117.18,22.97 115.52,21.73 113.39,21.73 Z M113.16,28.58 C112.55,28.58 111.7,28.27 111.7,27.52 C111.7,26.56 112.76,26.19 113.68,26.19 C114.5,26.19 114.89,26.37 115.38,26.61 C115.24,27.76 114.24,28.58 113.16,28.58 Z M123.74,22.01 L121.6,27.43 L121.54,27.43 L119.32,22.01 L117.31,22.01 L120.64,29.59 L118.74,33.8 L120.69,33.8 L125.82,22.01 L123.74,22.01 Z M106.94,30 L108.81,30 L108.81,17.5 L106.94,17.5 L106.94,30 Z" id="Shape" fill="#FFFFFF"></path>
            <g id="Group" transform="translate(9.000000, 7.120000)">
                <path d="M1.44,0.42 C1.15,0.73 0.98,1.21 0.98,1.82 L0.98,23.94 C0.98,24.56 1.15,25.04 1.44,25.34 L1.51,25.41 L13.9,13.03 L13.9,12.88 L13.9,12.73 L1.51,0.35 L1.44,0.42 Z" id="Path" fill="url(#linearGradient-1)"></path>
                <path d="M18.03,17.16 L13.9,13.03 L13.9,12.88 L13.9,12.73 L18.03,8.6 L18.12,8.65 L23.01,11.43 C24.41,12.22 24.41,13.52 23.01,14.32 L18.12,17.1 L18.03,17.16 Z" id="Path" fill="url(#linearGradient-2)"></path>
                <path d="M18.12,17.11 L13.9,12.89 L1.44,25.35 C1.9,25.84 2.66,25.9 3.52,25.41 L18.12,17.11" id="Path" fill="url(#linearGradient-3)"></path>
                <path d="M18.12,8.66 L3.51,0.36 C2.65,-0.13 1.89,-0.07 1.43,0.42 L13.9,12.88 L18.12,8.66 Z" id="Path" fill="url(#linearGradient-4)"></path>
                <g transform="translate(0.000000, 17.000000)" fill="#000000" id="Path">
                    <path d="M18.03,0.02 L3.51,8.27 C2.7,8.73 1.97,8.7 1.51,8.28 L1.51,8.28 L1.44,8.35 L1.44,8.35 L1.51,8.42 L1.51,8.42 C1.98,8.84 2.7,8.87 3.51,8.41 L18.12,0.11 L18.03,0.02 Z" opacity="0.2"></path>
                    <path d="M1.44,8.2 C1.15,7.89 0.98,7.41 0.98,6.8 L0.98,6.95 C0.98,7.57 1.15,8.05 1.44,8.35 L1.51,8.28 L1.44,8.2 Z" opacity="0.12"></path>
                </g>
                <path d="M23.01,14.18 L18.02,17.01 L18.11,17.1 L23,14.32 C23.7,13.92 24.05,13.4 24.05,12.88 L24.05,12.88 C24,13.36 23.65,13.82 23.01,14.18 Z" id="Path" fill="#000000" opacity="0.12"></path>
                <path d="M3.51,0.51 L23.01,11.59 C23.64,11.95 24,12.41 24.06,12.89 L24.06,12.89 C24.06,12.37 23.71,11.84 23.01,11.45 L3.51,0.37 C2.11,-0.42 0.97,0.24 0.97,1.84 L0.97,1.99 C0.97,0.37 2.12,-0.29 3.51,0.51 Z" id="Path" fill="#FFFFFF" opacity="0.25"></path>
            </g>
        </g>
    </g>
</svg>